<svg xmlns="http://www.w3.org/2000/svg" viewBox="0 0 64 64" width="64" height="64">
  <defs>
    <linearGradient id="autoGrad" x1="0%" y1="0%" x2="100%" y2="100%">
      <stop offset="0%" stop-color="#00b4db"/>
      <stop offset="100%" stop-color="#0083b0"/>
    </linearGradient>
  </defs>
  <rect width="64" height="64" rx="14" fill="url(#autoGrad)"/>
  <!-- Integration nodes / Pipeline arrows -->
  <g fill="none" stroke="#ffffff" stroke-width="2.5" stroke-linecap="round" stroke-linejoin="round">
    <rect x="11" y="15" width="16" height="12" rx="3" fill="#ffffff" fill-opacity="0.25"/>
    <rect x="37" y="15" width="16" height="12" rx="3" fill="#ffffff" fill-opacity="0.25"/>
    <!-- Arrow from node 1 to node 2 -->
    <path d="M27 21 L37 21"/>
    <path d="M33 17 L37 21 L33 25"/>
    <!-- Down arrow to node 3 -->
    <path d="M45 27 L45 37"/>
    <path d="M41 33 L45 37 L49 33"/>
    <rect x="24" y="37" width="16" height="12" rx="3" fill="#ffffff" fill-opacity="0.25"/>
    <!-- Return / Integration loop -->
    <path d="M24 43 L19 43 L19 27"/>
    <path d="M15 31 L19 27 L23 31"/>
  </g>
  <circle cx="19" cy="21" r="2.5" fill="#ffffff"/>
  <circle cx="45" cy="21" r="2.5" fill="#ffffff"/>
  <circle cx="32" cy="43" r="2.5" fill="#ffffff"/>
</svg>
